<svg xmlns="http://www.w3.org/2000/svg" id="Layer_1" data-name="Layer 1" viewBox="0 0 431.34 147.64"><defs><style>.cls-1{fill:#378fcf;}.cls-2{fill:#4bcfad;}</style></defs><path class="cls-1" d="M143.11,90.83V20c0-3.64,2.11-5.63,5.74-5.63h7.27c3.63,0,5.63,2,5.63,5.63V49.69h30.71V20c0-3.64,2-5.63,5.62-5.63h7.27c3.63,0,5.63,2,5.63,5.63V90.83c0,3.64-2,5.63-5.63,5.63h-7.27c-3.63,0-5.62-2-5.62-5.63v-26H161.75v26c0,3.64-2,5.63-5.63,5.63h-7.27C145.22,96.46,143.11,94.47,143.11,90.83Z"></path><path class="cls-1" d="M220.47,66.57c0-17,12.78-31.65,33.05-31.65,17.12,0,31.18,10.32,32,29.54.12,3.4-2.22,4.92-5.74,4.92h-42c-.24,7.15,6.91,14.07,18.52,14.07a26.72,26.72,0,0,0,13.36-3.63c3.16-1.76,5.74-1.53,8,1.17L279,82.63c2.34,2.81,2.11,6-1.06,8.32-6.91,5-15,6.8-22.73,6.8C233.6,97.75,220.47,83.8,220.47,66.57Zm48.06-7.27c-1.64-8.08-8.56-10.66-14.77-10.66s-13.48,2.81-15.47,10.66Z"></path><path class="cls-1" d="M311.66,88v2.81c0,3.64-2.11,5.63-5.74,5.63h-6.8c-3.63,0-5.63-2-5.63-5.63V17.34c0-3.63,2-5.62,5.63-5.62h6.8c3.63,0,5.74,2,5.74,5.62V44.77C316,38,323,34.92,330.88,34.92c17,0,29.07,13.72,29.07,31.42s-12.07,31.41-29.07,31.41C323,97.75,316,94.7,311.66,88Zm30.13-21.68c0-9.26-5.63-16.88-15-16.88s-15.35,7.27-15.47,16.88c.12,9.61,6.1,16.88,15.47,16.88S341.79,75.71,341.79,66.34Z"></path><path class="cls-2" d="M109.42,10.55A36.1,36.1,0,0,0,60,9.08,36.06,36.06,0,0,0,6.57,56.81a4.92,4.92,0,0,0,4,2.09h3.67a4.93,4.93,0,0,0,3.85-1.85L28.94,43.56,39.2,57a4.94,4.94,0,0,0,3.92,1.93H55.28V73.12a4.94,4.94,0,1,0,9.87,0V58.9H79.37a4.94,4.94,0,0,0,0-9.87H65.15V34.81a4.94,4.94,0,0,0-9.87,0V49H45.56L33,32.56a5,5,0,0,0-3.86-1.94H29a4.93,4.93,0,0,0-3.85,1.85L12.73,48A26.2,26.2,0,0,1,54.56,17.52c.57.57,1.12,1.17,1.62,1.78A5,5,0,0,0,60,21.09h0a4.92,4.92,0,0,0,3.79-1.78c.52-.63,1.07-1.23,1.63-1.79a26.19,26.19,0,0,1,37,37L60,97,40.44,77.47a4.94,4.94,0,0,0-7,7L54.8,105.79a7.33,7.33,0,0,0,10.37,0l44.25-44.25a36.08,36.08,0,0,0,0-51Z"></path><path class="cls-1" d="M425.71,36.21h-6.92c-3.63,0-5.62,2-5.62,5.63v2.93c-4.34-6.8-11.37-9.85-19.34-9.85-16.88,0-28.95,13.72-28.95,31.42S377,97.75,393.83,97.75c8,0,15-3,19.34-9.73v2.81c0,3.64,2,5.63,5.62,5.63h6.92c3.63,0,5.63-2,5.63-5.63v-49C431.34,38.21,429.34,36.21,425.71,36.21ZM398.92,81.42a9.79,9.79,0,1,1-13.85-13.85,9.68,9.68,0,0,1,1.51-1.23,10.36,10.36,0,0,1-1.51-1.24,9.79,9.79,0,0,1,13.85-13.85L414,66.34Z"></path><path class="cls-1" d="M147.05,138.21H158.7v2.63H143.49v-2.35l11.39-15.66H143.52v-2.61h14.83v2.37Z"></path><path class="cls-1" d="M173.14,118.44h2.8v22.4h-2.7l-.07-2.63a5.08,5.08,0,0,1-2,2.15,5.89,5.89,0,0,1-3,.79,6.7,6.7,0,0,1-4.8-2,7,7,0,0,1-1.46-2.39,8.64,8.64,0,0,1-.54-3.11,8.32,8.32,0,0,1,.92-4,6.66,6.66,0,0,1,2.48-2.64,6.54,6.54,0,0,1,3.4-.91,5.85,5.85,0,0,1,3,.76,5.08,5.08,0,0,1,2,2.1Zm-4.38,20.31a4.19,4.19,0,0,0,3.26-1.46,5.32,5.32,0,0,0,1.31-3.67A5.24,5.24,0,0,0,172,130a4.22,4.22,0,0,0-3.25-1.46,4.27,4.27,0,0,0-3.27,1.42,5.86,5.86,0,0,0,0,7.41A4.27,4.27,0,0,0,168.76,138.75Z"></path><path class="cls-1" d="M183.67,128.91a4.21,4.21,0,0,1,1.79-1.91,5.53,5.53,0,0,1,2.81-.76v2.6a4.84,4.84,0,0,0-3.37,1,4.35,4.35,0,0,0-1.14,3.37v7.6H181V126.4h2.71Z"></path><path class="cls-1" d="M194.35,141.12a5.66,5.66,0,0,1-2.21-.4,3.4,3.4,0,0,1-1.59-1.3,3.88,3.88,0,0,1-.62-2.26,4.12,4.12,0,0,1,.4-1.89,3.25,3.25,0,0,1,1.19-1.31,7.48,7.48,0,0,1,1.71-.82,14.84,14.84,0,0,1,2.18-.53l2.28-.39c.87-.17,1.31-.61,1.31-1.33a2.34,2.34,0,0,0-.88-2,3.51,3.51,0,0,0-2.18-.65,3.63,3.63,0,0,0-2.22.64,2.76,2.76,0,0,0-1,2l-2.52-.51a4.53,4.53,0,0,1,1.86-3.15,7,7,0,0,1,4-1,10,10,0,0,1,1.7.14,6,6,0,0,1,1.53.51,4.39,4.39,0,0,1,1.25.93,4,4,0,0,1,.83,1.44,6,6,0,0,1,.32,2V137a2.31,2.31,0,0,0,.33,1.46,1.37,1.37,0,0,0,1.11.39h.22v2H202c-1.58,0-2.51-.65-2.8-1.94h-.13a4.87,4.87,0,0,1-2.06,1.68A6.62,6.62,0,0,1,194.35,141.12Zm.64-2.23a3.87,3.87,0,0,0,3-1.34A5.26,5.26,0,0,0,199.2,134l-3.77.77a4.68,4.68,0,0,0-2.09.75,1.72,1.72,0,0,0-.68,1.47,1.68,1.68,0,0,0,.64,1.45A2.8,2.8,0,0,0,195,138.89Z"></path><path class="cls-1" d="M215.61,126.4h3l-5.92,14.44h-2.41l-5.89-14.44h3l4.13,11.2Z"></path><path class="cls-1" d="M227.09,141.12a7.07,7.07,0,1,1,5.31-2.05A7.29,7.29,0,0,1,227.09,141.12Zm0-2.31a4.33,4.33,0,0,0,3.33-1.43,6.08,6.08,0,0,0,0-7.54,4.33,4.33,0,0,0-3.33-1.43,4.26,4.26,0,0,0-3.28,1.43,6.12,6.12,0,0,0,0,7.54A4.26,4.26,0,0,0,227.06,138.81Z"></path><path class="cls-1" d="M243,140.84a3.86,3.86,0,0,1-2.88-1.06,4,4,0,0,1-1.05-3V128.6h-2.95v-2.2h1.06a2.18,2.18,0,0,0,1.63-.52,2.6,2.6,0,0,0,.49-1.78v-2.5h2.58v4.8h3.27v2.2h-3.27v7.92a2.18,2.18,0,0,0,.53,1.56,1.88,1.88,0,0,0,1.41.56h1.33v2.2Z"></path><path class="cls-1" d="M255.87,126.11a5.14,5.14,0,0,1,3.7,1.3,4.88,4.88,0,0,1,1.36,3.7v9.73h-2.82v-9.1a3.28,3.28,0,0,0-.85-2.49,3.06,3.06,0,0,0-2.19-.81,3.49,3.49,0,0,0-2.53,1,4,4,0,0,0-1,2.9v8.53h-2.8V126.4h2.8v1.78a4.67,4.67,0,0,1,1.82-1.53A5.66,5.66,0,0,1,255.87,126.11Z"></path><path class="cls-1" d="M265.67,140.84V126.4h2.82v14.44Zm.39-16.85,3.69-4.85,1.46,1.06L268,124Z"></path><path class="cls-1" d="M279.59,141.1a7.08,7.08,0,0,1-5.25-2.08,8.15,8.15,0,0,1,0-10.83,7.69,7.69,0,0,1,9.51-.8,6.39,6.39,0,0,1,2.43,3.59l-2.61.39a4.21,4.21,0,0,0-1.57-2.19,4.29,4.29,0,0,0-2.54-.77,4.11,4.11,0,0,0-3.22,1.43,6.24,6.24,0,0,0,0,7.52,4.08,4.08,0,0,0,3.22,1.44,4.29,4.29,0,0,0,2.54-.77,4.21,4.21,0,0,0,1.57-2.19l2.61.39a6.36,6.36,0,0,1-2.44,3.58A7.11,7.11,0,0,1,279.59,141.1Z"></path><path class="cls-1" d="M299.13,140.84l-5.31-6.58H292.7v6.58h-2.82v-22.4h2.82v13.74h1l4.93-5.78H302L296.16,133l6.51,7.83Z"></path><path class="cls-1" d="M317.64,133.34l0,.75H306.41a4.91,4.91,0,0,0,1.34,3.51,4.38,4.38,0,0,0,3.17,1.23,4.15,4.15,0,0,0,2.3-.66,4.32,4.32,0,0,0,1.58-1.84l2.53.5a6.38,6.38,0,0,1-2.47,3.14,6.83,6.83,0,0,1-3.91,1.15,7.14,7.14,0,0,1-5.28-2,8.52,8.52,0,0,1,0-11,7,7,0,0,1,5.18-2,6.64,6.64,0,0,1,4.91,1.85A7.32,7.32,0,0,1,317.64,133.34Zm-6.77-5.1a4.11,4.11,0,0,0-4.34,3.72h8.29a4,4,0,0,0-1.24-2.77A3.88,3.88,0,0,0,310.87,128.24Z"></path><path class="cls-1" d="M337.8,120.22a5.88,5.88,0,0,1,4.49,1.83A6.41,6.41,0,0,1,344,126.6a6.32,6.32,0,0,1-1.71,4.53,5.94,5.94,0,0,1-4.5,1.8h-5.05v7.91h-2.9V120.22Zm-.44,10.21a3.66,3.66,0,0,0,2.78-1.05,4.42,4.42,0,0,0,0-5.6,3.63,3.63,0,0,0-2.78-1.07h-4.61v7.72Z"></path><path class="cls-1" d="M352.83,141.12a7.08,7.08,0,1,1,5.31-2.05A7.28,7.28,0,0,1,352.83,141.12Zm0-2.31a4.31,4.31,0,0,0,3.32-1.43,6.08,6.08,0,0,0,0-7.54,4.31,4.31,0,0,0-3.32-1.43,4.26,4.26,0,0,0-3.29,1.43,6.15,6.15,0,0,0,0,7.54A4.26,4.26,0,0,0,352.81,138.81Z"></path><path class="cls-1" d="M368.78,140.84a3.87,3.87,0,0,1-2.89-1.06,4,4,0,0,1-1.05-3V128.6h-2.95v-2.2H363a2.15,2.15,0,0,0,1.62-.52,2.6,2.6,0,0,0,.49-1.78v-2.5h2.58v4.8h3.27v2.2h-3.27v7.92a2.14,2.14,0,0,0,.54,1.56,1.84,1.84,0,0,0,1.4.56h1.33v2.2Z"></path><path class="cls-1" d="M377.21,128.91A4.21,4.21,0,0,1,379,127a5.52,5.52,0,0,1,2.8-.76v2.6a4.87,4.87,0,0,0-3.37,1,4.35,4.35,0,0,0-1.13,3.37v7.6h-2.81V126.4h2.72Z"></path><path class="cls-1" d="M397.34,133.34l0,.75H386.11a4.82,4.82,0,0,0,1.34,3.51,4.35,4.35,0,0,0,3.16,1.23,4.16,4.16,0,0,0,2.31-.66,4.3,4.3,0,0,0,1.57-1.84l2.54.5a6.44,6.44,0,0,1-2.47,3.14,6.86,6.86,0,0,1-3.92,1.15,7.1,7.1,0,0,1-5.27-2,8.49,8.49,0,0,1,0-11,7,7,0,0,1,5.17-2,6.67,6.67,0,0,1,4.92,1.85A7.37,7.37,0,0,1,397.34,133.34Zm-6.77-5.1a4.35,4.35,0,0,0-2.87.94,4.44,4.44,0,0,0-1.48,2.78h8.3a4.06,4.06,0,0,0-1.24-2.77A3.88,3.88,0,0,0,390.57,128.24Z"></path><path class="cls-1" d="M409,126.11a6.53,6.53,0,0,1,3.39.91,6.69,6.69,0,0,1,2.46,2.64,8.32,8.32,0,0,1,.91,4,7.64,7.64,0,0,1-1.94,5.45,6.37,6.37,0,0,1-4.82,2.08,5.89,5.89,0,0,1-3-.79,5.06,5.06,0,0,1-2-2.15l-.07,2.63h-2.7v-22.4h2.78L404,129a5,5,0,0,1,2-2.1A5.87,5.87,0,0,1,409,126.11Zm-3.88,11.18a4.2,4.2,0,0,0,3.26,1.46,4.25,4.25,0,0,0,3.26-1.42,5.86,5.86,0,0,0,0-7.41,4.39,4.39,0,0,0-6.51.05,5.72,5.72,0,0,0,0,7.32Z"></path><path class="cls-1" d="M428,126.4h2.94l-8.47,21.24h-2.89l3-7.16-5.68-14.08H420l4,10.94Z"></path></svg>