<svg width="29" height="28" viewBox="0 0 29 28" fill="none" xmlns="http://www.w3.org/2000/svg">
<path d="M13.3333 2.33325C19.1293 2.33325 23.8333 7.03725 23.8333 12.8333C23.8333 18.6293 19.1293 23.3333 13.3333 23.3333C7.53734 23.3333 2.83334 18.6293 2.83334 12.8333C2.83334 7.03725 7.53734 2.33325 13.3333 2.33325ZM13.3333 20.9999C17.8448 20.9999 21.5 17.3448 21.5 12.8333C21.5 8.32175 17.8448 4.66659 13.3333 4.66659C8.82184 4.66659 5.16668 8.32175 5.16668 12.8333C5.16668 17.3448 8.82184 20.9999 13.3333 20.9999ZM23.2325 21.0828L26.533 24.3821L24.8822 26.0329L21.5828 22.7324L23.2325 21.0828Z" fill="#3886C7"/>
</svg>
