<svg width="29" height="28" viewBox="0 0 29 28" fill="none" xmlns="http://www.w3.org/2000/svg">
<path d="M14.5 19.8333C18.7735 19.8333 22.5103 21.6708 24.5426 24.4124L22.3936 25.4286C20.7393 23.4686 17.8226 22.1666 14.5011 22.1666C11.1785 22.1666 8.26298 23.4686 6.60865 25.4286L4.46082 24.4113C6.49315 21.6696 10.2288 19.8333 14.5 19.8333ZM14.5 2.33325C16.0471 2.33325 17.5308 2.94783 18.6248 4.0418C19.7187 5.13576 20.3333 6.61949 20.3333 8.16659V11.6666C20.3332 13.1696 19.753 14.6146 18.7136 15.7003C17.6742 16.786 16.2559 17.4286 14.7543 17.4941L14.5 17.4999C12.9529 17.4999 11.4692 16.8853 10.3752 15.7914C9.28123 14.6974 8.66665 13.2137 8.66665 11.6666V8.16659C8.66674 6.66338 9.24711 5.21823 10.2868 4.13251C11.3264 3.04679 12.745 2.40432 14.2468 2.33909L14.5011 2.33325H14.5ZM14.5 4.66659C13.6074 4.66683 12.7487 5.00806 12.0994 5.62048C11.4501 6.2329 11.0593 7.07024 11.007 7.96125L11.0011 8.16659V11.6666C11.0003 12.5776 11.3547 13.4531 11.989 14.107C12.6234 14.7609 13.4878 15.1417 14.3984 15.1685C15.3091 15.1952 16.1943 14.8658 16.8659 14.2502C17.5376 13.6347 17.9427 12.7815 17.9953 11.8719L18 11.6666V8.16659C18 7.23833 17.6312 6.34809 16.9749 5.69171C16.3185 5.03533 15.4282 4.66659 14.5 4.66659Z" fill="#3886C7"/>
</svg>
