<svg width="28" height="28" viewBox="0 0 28 28" fill="none" xmlns="http://www.w3.org/2000/svg">
<path d="M17.9317 4.01343L21.679 10.5024H25.6725V12.8358H24.311L23.4278 23.4326C23.4036 23.7241 23.2706 23.9959 23.0554 24.1941C22.8402 24.3922 22.5584 24.5023 22.2658 24.5024H5.74584C5.45309 24.5026 5.17099 24.3926 4.95553 24.1945C4.74006 23.9963 4.60697 23.7243 4.58267 23.4326L3.69951 12.8358H2.33917V10.5024H6.33151L10.0788 4.01343L12.0995 5.18009L9.02651 10.5024H18.984L15.9122 5.18009L17.9328 4.01343H17.9317ZM21.9683 12.8358H6.04217L6.82034 22.1691H21.1925L21.9707 12.8358H21.9683ZM15.1725 15.1691V19.8358H12.8392V15.1691H15.1725ZM10.5058 15.1691V19.8358H8.17251V15.1691H10.5058ZM19.8392 15.1691V19.8358H17.5058V15.1691H19.8392Z" fill="#3886C7"/>
</svg>
